<svg viewBox="0 0 900 540" xmlns="http://www.w3.org/2000/svg" font-family="Helvetica, Arial, sans-serif">
  <defs>
    <marker id="arrowGreen" viewBox="0 0 10 10" refX="8" refY="5" markerWidth="9" markerHeight="9" orient="auto-start-reverse">
      <path d="M0,0 L10,5 L0,10 z" fill="#15803d"/>
    </marker>
    <marker id="arrowRed" viewBox="0 0 10 10" refX="8" refY="5" markerWidth="9" markerHeight="9" orient="auto-start-reverse">
      <path d="M0,0 L10,5 L0,10 z" fill="#b91c1c"/>
    </marker>
  </defs>

  <rect x="0" y="0" width="900" height="540" fill="#ffffff"/>

  <text x="40" y="30" font-size="19" font-weight="bold" fill="#0f172a">Network Topology</text>
  <text x="40" y="49" font-size="12" fill="#64748b">Devices and traffic path used in this lab</text>

  <!-- Boxes (drawn first so edge lines/labels sit on top, never hidden) -->
  <rect x="40" y="60" width="200" height="80" rx="10" fill="#fef2f2" stroke="#b91c1c" stroke-width="2"/>
  <text x="140" y="92" font-size="14" font-weight="bold" fill="#b91c1c" text-anchor="middle">LINUX-ISP</text>
  <text x="140" y="110" font-size="11.5" fill="#475569" text-anchor="middle">External attacker host</text>
  <text x="140" y="128" font-size="11.5" fill="#475569" text-anchor="middle">100.65.0.254</text>

  <rect x="340" y="55" width="240" height="96" rx="10" fill="#f0fdf4" stroke="#15803d" stroke-width="2"/>
  <text x="460" y="80" font-size="14" font-weight="bold" fill="#15803d" text-anchor="middle">HQ-NGFW-1</text>
  <text x="460" y="98" font-size="11.5" fill="#475569" text-anchor="middle">Edge FortiGate NGFW</text>
  <text x="460" y="116" font-size="11.5" fill="#475569" text-anchor="middle">WAN port2 · VIP 100.65.0.200</text>
  <text x="460" y="134" font-size="11.5" fill="#475569" text-anchor="middle">→ 10.0.11.50</text>

  <rect x="340" y="235" width="240" height="90" rx="10" fill="#f0fdf4" stroke="#15803d" stroke-width="2"/>
  <text x="460" y="263" font-size="14" font-weight="bold" fill="#15803d" text-anchor="middle">HQ-ISFW</text>
  <text x="460" y="281" font-size="11.5" fill="#475569" text-anchor="middle">Internal segmentation FW</text>
  <text x="460" y="299" font-size="11.5" fill="#475569" text-anchor="middle">port4 (LAN)</text>

  <rect x="160" y="385" width="220" height="80" rx="10" fill="#f8fafc" stroke="#334155" stroke-width="2"/>
  <text x="270" y="417" font-size="14" font-weight="bold" fill="#334155" text-anchor="middle">Ubuntu Desktop</text>
  <text x="270" y="437" font-size="11.5" fill="#475569" text-anchor="middle">traffic-generation.sh</text>

  <rect x="500" y="385" width="240" height="80" rx="10" fill="#f8fafc" stroke="#334155" stroke-width="2"/>
  <text x="620" y="417" font-size="14" font-weight="bold" fill="#334155" text-anchor="middle">Target Web Server</text>
  <text x="620" y="437" font-size="11.5" fill="#475569" text-anchor="middle">Apache2 — 10.0.11.50</text>

  <!-- Edges (drawn on top of boxes) -->
  <line x1="240" y1="100" x2="334" y2="100" stroke="#b91c1c" stroke-width="2.5" marker-end="url(#arrowRed)"/>
  <text x="287" y="92" font-size="11" font-weight="bold" fill="#b91c1c" text-anchor="middle">Nikto attack</text>

  <line x1="460" y1="151" x2="460" y2="234" stroke="#15803d" stroke-width="2.5" marker-end="url(#arrowGreen)"/>
  <rect x="407" y="180" width="106" height="17" fill="#ffffff"/>
  <text x="460" y="193" font-size="11.5" fill="#15803d" text-anchor="middle">port4 → LAN</text>

  <line x1="400" y1="330" x2="290" y2="387" stroke="#15803d" stroke-width="2.5" marker-end="url(#arrowGreen)"/>
  <line x1="520" y1="330" x2="610" y2="387" stroke="#15803d" stroke-width="2.5" marker-end="url(#arrowGreen)"/>
  <rect x="385" y="355" width="150" height="17" fill="#ffffff"/>
  <text x="460" y="368" font-size="11.5" fill="#15803d" text-anchor="middle">internal LAN traffic</text>

  <!-- Legend -->
  <line x1="40" y1="500" x2="80" y2="500" stroke="#15803d" stroke-width="2.5"/>
  <text x="90" y="504" font-size="11" fill="#1f2d3d">Normal traffic</text>
  <line x1="220" y1="500" x2="260" y2="500" stroke="#b91c1c" stroke-width="2.5"/>
  <text x="270" y="504" font-size="11" fill="#1f2d3d">Attack traffic</text>
</svg>
